<svg width="18" height="17" viewBox="0 0 18 17" fill="none" xmlns="http://www.w3.org/2000/svg">
<path d="M15.9773 0.461426H1.04219C0.466585 0.461426 0 0.790389 0 1.19621C0 1.60204 0.466668 1.931 1.04219 1.931H15.9773C16.5529 1.931 17.0195 1.60204 17.0195 1.19621C17.0195 0.79033 16.5529 0.461426 15.9773 0.461426Z" fill="black"/>
<path d="M15.9773 7.68799H1.04219C0.466585 7.68799 0 8.01695 0 8.42278C0 8.82861 0.466668 9.15757 1.04219 9.15757H15.9773C16.5529 9.15757 17.0195 8.82861 17.0195 8.42278C17.0195 8.01689 16.5529 7.68799 15.9773 7.68799Z" fill="black"/>
<path d="M15.9773 14.915H1.04219C0.466585 14.915 0 15.244 0 15.6498C0 16.0557 0.466668 16.3846 1.04219 16.3846H15.9773C16.5529 16.3846 17.0195 16.0557 17.0195 15.6498C17.0195 15.2439 16.5529 14.915 15.9773 14.915Z" fill="black"/>
</svg>
